<?xml version="1.0" encoding="UTF-8" standalone="no"?>
<svg width="27px" height="22px" viewBox="0 0 23 18" version="1.1" xmlns="http://www.w3.org/2000/svg" xmlns:xlink="http://www.w3.org/1999/xlink">
    <!-- Generator: Sketch 39.1 (31720) - http://www.bohemiancoding.com/sketch -->
    <title>Icon-Quit</title>
    <desc>Created with Sketch.</desc>
    <defs></defs>
    <g id="Symbols" stroke="none" stroke-width="1" fill="none" fill-rule="evenodd">
        <g id="Restart" transform="translate(-6.000000, -6.000000)" fill="#FFFFFF">
            <path d="M10.6646689,14.6697999 L10.6646689,18.6811735 L8.59836572,16.676823 L6.5320625,18.6811735 L12.0298066,23.9606329 L17.5523463,18.6811735 L15.4860431,16.676823 L13.4197399,18.6811735 L13.4197399,14.6724724 C13.4197399,11.3853375 16.1761884,8.71019758 19.5663032,8.71019758 C22.956418,8.71019758 25.7128665,11.3840012 25.7128665,14.6724724 C25.7128665,16.345437 24.9813952,17.9529262 23.7044198,19.0793712 L25.5613376,21.0556608 C27.4086127,19.4227833 28.4679375,17.0964004 28.4679375,14.6724724 C28.4679375,9.91147169 24.4744621,6.03773016 19.5663032,6.03773016 C14.6581443,6.03773016 10.6646689,9.91147169 10.6646689,14.6697999 Z" id="Icon-Quit"></path>
        </g>
    </g>
</svg>
